# xmcd
#
# Track frame offsets:
#	150
#	14119
#	27268
#	38892
#	50144
#	64708
#	79600
#	89563
#	102461
#	121234
#	137810
#	153398
#
# Disc length: 2178 seconds
#
# Revision: 1
# Processed by: cddbd v1.5.2PL0 Copyright (c) Steve Scherf et al.
# Submitted via: audiograbber 1.81.02
#
DISCID=a408800c
DTITLE=PETER KRAUS - PETER KRAUS
DYEAR=2002
DGENRE=Country
TTITLE0=SUGAR BABY
TTITLE1=WENN TEENAGER TRÄUMEN
TTITLE2=DIANA
TTITLE3=IM JAHR TUTTI FRUTTI
TTITLE4=EIGENTLICH IST ALLES ROCK'N'ROLL
TTITLE5=SIE WAR SO WIE DU
TTITLE6=TEDDY BÄR
TTITLE7=SO WIE DAMALS, BABY
TTITLE8=NATÜRLICH LIEBE ICH
TTITLE9=MIR FEHLT DER MUT
TTITLE10=GEH'N SIE AUCH ZUM SONNEN
TTITLE11=MIT SIEBZEHN
EXTD=
EXTT0=
EXTT1=
EXTT2=
EXTT3=
EXTT4=
EXTT5=
EXTT6=
EXTT7=
EXTT8=
EXTT9=
EXTT10=
EXTT11=
PLAYORDER=
